{"title":"Slashers 2001 DVDRip Xvid BigPerm","uid":5903271,"size":918718716,"categoryP":"video","categoryS":"movies","magnet":"?xt=urn:btih:bfc522be3153548887ea3f4eeffb2b3b416892f1&amp;dn=Slashers+2001+DVDRip+Xvid+BigPerm&amp;tr=udp%3A%2F%2Ftracker.openbittorrent.com%3A80&amp;tr=udp%3A%2F%2Fopen.demonii.com%3A1337&amp;tr=udp%3A%2F%2Ftracker.coppersurfer.tk%3A6969&amp;tr=udp%3A%2F%2Fexodus.desync.com%3A6969","seeders":2,"leechers":0,"uploader":"deffjam555","files":3,"time":1287752668,"description":"\nPlot\n\nJapan's number one extreme reality show is having it's first all-American special!\nSix lucky contestants, chosen from thousands of applicants, will have the chance to\nwin millions of dollars, and all they have to do is stay alive!\n\n\nCast\n\nSarah Joslyn Crowder ... Megan Lowry\nTony Curtis Blondell ... Devon White\nKieran Keller ... Michael Gibbons\nJerry Sprio ... Rick Fisher\nCarolina Pla ... Rebecca Galley\nSofia de Medeiros ... Brenda Thompson\nClaudine Shiraishi ... Miho Taguchi\nChristopher Piggins ... Doctor Ripper\nNeil Napier ... Chainsaw Charlie / Preacherman\nTakaaki Honda ... The Announcer / Hideo\nKoichi Yano ... The Technician\nErik Rutherford ... Steve Taylor - US correspondant\nShigeru Fugita ... DJ Slash\n\n\nVideo\nID : 0\nFormat : MPEG-4 Visual\nFormat profile : Advanced Simple@L5\nFormat settings, BVOP : Yes\nFormat settings, QPel : No\nFormat settings, GMC : No warppoints\nFormat settings, Matrix : Default (H.263)\nCodec ID : XVID\nCodec ID/Hint : XviD\nDuration : 1h 38mn\nBit rate : 1 040 Kbps\nWidth : 704 pixels\nHeight : 396 pixels\nDisplay aspect ratio : 16:9\nFrame rate : 29.970 fps\nResolution : 8 bits\nColorimetry : 4:2:0\nScan type : Progressive\nBits/(Pixel*Frame) : 0.124\nStream size : 736 MiB (84%)\nWriting library : XviD 1.2.1 (UTC 2008-12-04)\n\nAudio\nID : 1\nFormat : AC-3\nFormat/Info : Audio Coding 3\nCodec ID : 2000\nDuration : 1h 38mn\nBit rate mode : Constant\nBit rate : 192 Kbps\nChannel(s) : 2 channels\nChannel positions : Front: L R\nSampling rate : 48.0 KHz\nResolution : 16 bits\nVideo delay : 33ms\nStream size : 136 MiB (16%)\nAlignment : Split accross interleaves\nInterleave, duration : 500 ms (14.98 video frames)\nInterleave, preload duration : 500 ms\n\nscreen shot\n\n\n\n\n\n\n\n","torrent":{"xt":"urn:btih:bfc522be3153548887ea3f4eeffb2b3b416892f1","amp;dn":"Slashers+2001+DVDRip+Xvid+BigPerm","amp;tr":["udp%3A%2F%2Ftracker.openbittorrent.com%3A80","udp%3A%2F%2Fopen.demonii.com%3A1337","udp%3A%2F%2Ftracker.coppersurfer.tk%3A6969","udp%3A%2F%2Fexodus.desync.com%3A6969"],"infoHash":"bfc522be3153548887ea3f4eeffb2b3b416892f1","infoHashBuffer":{"type":"Buffer","data":[191,197,34,190,49,83,84,136,135,234,63,78,239,251,43,59,65,104,146,241]},"announce":[],"urlList":[]}}